<?xml version="1.0" encoding="UTF-8"?>
<!DOCTYPE svg PUBLIC "-//W3C//DTD SVG 1.1//EN" "http://www.w3.org/Graphics/SVG/1.1/DTD/svg11.dtd">
<svg xmlns="http://www.w3.org/2000/svg" version="1.1" width="54px" height="55px" style="shape-rendering:geometricPrecision; text-rendering:geometricPrecision; image-rendering:optimizeQuality; fill-rule:evenodd; clip-rule:evenodd" xmlns:xlink="http://www.w3.org/1999/xlink">
<g><path style="opacity:1" fill="#fefefa" d="M -0.5,-0.5 C 9.83333,-0.5 20.1667,-0.5 30.5,-0.5C 30.8333,0.833333 31.1667,2.16667 31.5,3.5C 29.9184,2.12421 28.0851,1.12421 26,0.5C 22.5946,2.45332 19.0946,4.28665 15.5,6C 14.8333,7.66667 14.1667,9.33333 13.5,11C 10.3333,12.8333 7.16667,14.6667 4,16.5C 3.50115,20.4862 3.33449,24.4862 3.5,28.5C 2.82803,29.2674 1.9947,29.9341 1,30.5C 0.333333,34.8333 0.333333,39.1667 1,43.5C 4.75004,45.9589 8.58337,48.2922 12.5,50.5C 13.5,49.8333 14.5,49.1667 15.5,48.5C 18.7376,50.2753 21.7376,52.2753 24.5,54.5C 16.1667,54.5 7.83333,54.5 -0.5,54.5C -0.5,36.1667 -0.5,17.8333 -0.5,-0.5 Z"/></g>
<g><path style="opacity:1" fill="#fefdfa" d="M 30.5,-0.5 C 38.1667,-0.5 45.8333,-0.5 53.5,-0.5C 53.5,17.8333 53.5,36.1667 53.5,54.5C 44.8333,54.5 36.1667,54.5 27.5,54.5C 31.849,50.3919 36.849,48.3919 42.5,48.5C 51.2458,45.6466 54.0791,39.6466 51,30.5C 50.586,30.0426 50.086,29.7093 49.5,29.5C 48.6725,25.2044 48.1725,20.8711 48,16.5C 44.8333,14.6667 41.6667,12.8333 38.5,11C 37.5793,7.20142 35.246,4.70142 31.5,3.5C 31.1667,2.16667 30.8333,0.833333 30.5,-0.5 Z"/></g>
<g><path style="opacity:1" fill="#d7f82b" d="M 31.5,3.5 C 35.246,4.70142 37.5793,7.20142 38.5,11C 41.6667,12.8333 44.8333,14.6667 48,16.5C 48.1725,20.8711 48.6725,25.2044 49.5,29.5C 50.086,29.7093 50.586,30.0426 51,30.5C 54.0791,39.6466 51.2458,45.6466 42.5,48.5C 40.5002,45.2257 40.1669,41.8924 41.5,38.5C 40.7855,45.03 42.6188,46.03 47,41.5C 48.799,34.6129 47.299,33.2796 42.5,37.5C 42.5,36.1667 42.5,34.8333 42.5,33.5C 43.0906,32.8485 43.7573,32.1818 44.5,31.5C 40.538,27.3368 37.2047,27.6701 34.5,32.5C 33.8444,31.7222 33.0111,31.0556 32,30.5C 30.7393,31.6579 29.5726,31.6579 28.5,30.5C 31.3283,28.5299 34.3283,26.6966 37.5,25C 39.9203,24.3131 42.087,24.8131 44,26.5C 44.6667,23.8333 44.6667,21.1667 44,18.5C 42,17.1667 40,15.8333 38,14.5C 37.6667,16.5 37.3333,18.5 37,20.5C 33.5765,22.9183 29.9098,24.9183 26,26.5C 22.2792,25.0566 18.7792,23.2232 15.5,21C 14.7362,18.9307 14.2362,16.764 14,14.5C 12,15.8333 10,17.1667 8,18.5C 7.33333,21.1667 7.33333,23.8333 8,26.5C 9.31292,25.4272 10.8129,24.7605 12.5,24.5C 16.6838,25.8557 20.5171,27.8557 24,30.5C 24.8136,35.0204 24.647,39.3537 23.5,43.5C 23.8174,40.4281 23.4841,37.4281 22.5,34.5C 21.8243,35.6016 21.1577,36.6016 20.5,37.5C 20.6309,36.6236 20.2975,35.9569 19.5,35.5C 14.9371,37.166 13.6037,40.166 15.5,44.5C 15.44,45.0431 15.1067,45.3764 14.5,45.5C 13.8367,41.6657 12.8367,37.9991 11.5,34.5C 13.9288,34.415 15.9288,33.415 17.5,31.5C 15.3615,28.632 12.6948,27.9654 9.5,29.5C 9.29425,27.4508 8.46092,27.1175 7,28.5C 6.10351,14.1613 4.93684,14.1613 3.5,28.5C 3.33449,24.4862 3.50115,20.4862 4,16.5C 7.16667,14.6667 10.3333,12.8333 13.5,11C 14.1667,9.33333 14.8333,7.66667 15.5,6C 19.0946,4.28665 22.5946,2.45332 26,0.5C 28.0851,1.12421 29.9184,2.12421 31.5,3.5 Z"/></g>
<g><path style="opacity:1" fill="#fbfcec" d="M 32.5,11.5 C 34.6803,16.1606 33.347,19.4939 28.5,21.5C 27.3526,19.2351 27.1859,16.9018 28,14.5C 29.6516,13.6006 31.1516,12.6006 32.5,11.5 Z"/></g>
<g><path style="opacity:1" fill="#fbfcec" d="M 18.5,11.5 C 24.2569,12.7189 25.9236,16.0523 23.5,21.5C 18.9805,19.7266 17.3138,16.3932 18.5,11.5 Z"/></g>
<g><path style="opacity:1" fill="#fcfcec" d="M 25.5,4.5 C 33.078,6.54107 33.2446,8.8744 26,11.5C 24.0986,10.4645 22.2652,9.2978 20.5,8C 22.2331,6.81111 23.8998,5.64444 25.5,4.5 Z"/></g>
<g><path style="opacity:1" fill="#fdfdf6" d="M 28.5,30.5 C 27.353,34.6463 27.1864,38.9796 28,43.5C 29.4095,44.7875 30.9095,45.9542 32.5,47C 30.3359,47.9143 28.3359,49.081 26.5,50.5C 24.0038,49.4196 21.6705,48.0862 19.5,46.5C 21.1836,45.8503 22.5169,44.8503 23.5,43.5C 24.647,39.3537 24.8136,35.0204 24,30.5C 20.5171,27.8557 16.6838,25.8557 12.5,24.5C 10.8129,24.7605 9.31292,25.4272 8,26.5C 7.33333,23.8333 7.33333,21.1667 8,18.5C 10,17.1667 12,15.8333 14,14.5C 14.2362,16.764 14.7362,18.9307 15.5,21C 18.7792,23.2232 22.2792,25.0566 26,26.5C 29.9098,24.9183 33.5765,22.9183 37,20.5C 37.3333,18.5 37.6667,16.5 38,14.5C 40,15.8333 42,17.1667 44,18.5C 44.6667,21.1667 44.6667,23.8333 44,26.5C 42.087,24.8131 39.9203,24.3131 37.5,25C 34.3283,26.6966 31.3283,28.5299 28.5,30.5 Z"/></g>
<g><path style="opacity:1" fill="#fcfdf2" d="M 11.5,34.5 C 10.1851,33.5244 8.85181,32.5244 7.5,31.5C 7.85549,30.4777 8.52216,29.811 9.5,29.5C 12.6948,27.9654 15.3615,28.632 17.5,31.5C 15.9288,33.415 13.9288,34.415 11.5,34.5 Z"/></g>
<g><path style="opacity:1" fill="#fcfcf1" d="M 42.5,33.5 C 39.679,34.8 37.0124,34.4667 34.5,32.5C 37.2047,27.6701 40.538,27.3368 44.5,31.5C 43.7573,32.1818 43.0906,32.8485 42.5,33.5 Z"/></g>
<g><path style="opacity:1" fill="#fcfcf2" d="M 41.5,38.5 C 41.5,37.8333 41.8333,37.5 42.5,37.5C 47.299,33.2796 48.799,34.6129 47,41.5C 42.6188,46.03 40.7855,45.03 41.5,38.5 Z"/></g>
<g><path style="opacity:1" fill="#d6f828" d="M 9.5,29.5 C 8.52216,29.811 7.85549,30.4777 7.5,31.5C 8.85181,32.5244 10.1851,33.5244 11.5,34.5C 12.8367,37.9991 13.8367,41.6657 14.5,45.5C 15.1067,45.3764 15.44,45.0431 15.5,44.5C 19.1201,43.5485 20.7868,41.2151 20.5,37.5C 21.1577,36.6016 21.8243,35.6016 22.5,34.5C 23.4841,37.4281 23.8174,40.4281 23.5,43.5C 22.5169,44.8503 21.1836,45.8503 19.5,46.5C 21.6705,48.0862 24.0038,49.4196 26.5,50.5C 28.3359,49.081 30.3359,47.9143 32.5,47C 30.9095,45.9542 29.4095,44.7875 28,43.5C 27.1864,38.9796 27.353,34.6463 28.5,30.5C 29.5726,31.6579 30.7393,31.6579 32,30.5C 33.0111,31.0556 33.8444,31.7222 34.5,32.5C 37.0124,34.4667 39.679,34.8 42.5,33.5C 42.5,34.8333 42.5,36.1667 42.5,37.5C 41.8333,37.5 41.5,37.8333 41.5,38.5C 40.1669,41.8924 40.5002,45.2257 42.5,48.5C 36.849,48.3919 31.849,50.3919 27.5,54.5C 26.5,54.5 25.5,54.5 24.5,54.5C 21.7376,52.2753 18.7376,50.2753 15.5,48.5C 14.5,49.1667 13.5,49.8333 12.5,50.5C 8.58337,48.2922 4.75004,45.9589 1,43.5C 0.333333,39.1667 0.333333,34.8333 1,30.5C 1.9947,29.9341 2.82803,29.2674 3.5,28.5C 4.93684,14.1613 6.10351,14.1613 7,28.5C 8.46092,27.1175 9.29425,27.4508 9.5,29.5 Z"/></g>
<g><path style="opacity:1" fill="#fcfdf3" d="M 4.5,34.5 C 9.74582,36.0167 11.4125,39.35 9.5,44.5C 4.98051,42.7266 3.31384,39.3932 4.5,34.5 Z"/></g>
<g><path style="opacity:1" fill="#fcfcf5" d="M 31.5,34.5 C 36.7458,36.0167 38.4125,39.35 36.5,44.5C 31.9805,42.7266 30.3138,39.3932 31.5,34.5 Z"/></g>
<g><path style="opacity:1" fill="#fcfdf4" d="M 20.5,37.5 C 20.7868,41.2151 19.1201,43.5485 15.5,44.5C 13.6037,40.166 14.9371,37.166 19.5,35.5C 20.2975,35.9569 20.6309,36.6236 20.5,37.5 Z"/></g>
</svg>
